<svg width="191" height="137" viewBox="0 0 191 137" fill="none" xmlns="http://www.w3.org/2000/svg">
<path d="M141.965 91.5162L103.918 69.3714C100.649 67.4689 96.9402 66.4673 93.165 66.4673C89.3897 66.4673 85.681 67.4689 82.4117 69.3714L44.3645 91.5162H141.965Z" fill="#FFCC00"/>
<path d="M96.4983 0.518066L96.4919 44.7959C96.4914 48.6004 97.4849 52.3379 99.3724 55.6327C101.26 58.9276 103.975 61.6635 107.245 63.5654L145.302 85.6983L96.4983 0.518066Z" fill="#FFCC00"/>
<path d="M41.0315 85.6983L79.0888 63.5654C82.3585 61.6636 85.0737 58.9277 86.9613 55.6329C88.8489 52.338 89.8422 48.6004 89.8415 44.7959L89.8352 0.518066L41.0315 85.6983Z" fill="#FFCC00"/>
<path d="M184.894 115.68H178.119C177.6 115.679 177.102 115.471 176.735 115.101C176.368 114.731 176.162 114.23 176.161 113.707V112.241C176.162 111.718 176.368 111.217 176.735 110.847C177.102 110.477 177.6 110.269 178.119 110.268H184.69C185.288 110.269 185.86 110.509 186.283 110.934C186.706 111.36 186.943 111.938 186.944 112.54H190.671C190.67 110.942 190.039 109.41 188.918 108.28C187.796 107.15 186.276 106.514 184.69 106.512H178.119C176.612 106.514 175.167 107.118 174.101 108.192C173.036 109.266 172.437 110.722 172.435 112.241V113.707C172.437 115.226 173.036 116.682 174.101 117.756C175.167 118.83 176.612 119.434 178.119 119.436H184.894C185.524 119.437 186.128 119.689 186.573 120.137C187.019 120.585 187.271 121.193 187.273 121.827V122.849C187.272 123.485 187.021 124.094 186.575 124.543C186.129 124.992 185.525 125.245 184.894 125.246H178.871C178.133 125.245 177.426 124.949 176.905 124.424C176.383 123.898 176.09 123.186 176.089 122.443V122.283H172.363V122.451C172.365 124.19 173.051 125.857 174.271 127.087C175.491 128.316 177.145 129.008 178.871 129.01H184.894C186.513 129.008 188.064 128.359 189.209 127.205C190.353 126.052 190.997 124.488 191 122.857V121.836C190.998 120.204 190.355 118.64 189.21 117.486C188.065 116.332 186.513 115.682 184.894 115.68Z" fill="white"/>
<path d="M165.008 120.017C165.006 121.404 164.458 122.734 163.484 123.715C162.511 124.696 161.192 125.248 159.815 125.25H157.742C156.366 125.248 155.046 124.696 154.073 123.715C153.099 122.734 152.551 121.405 152.549 120.017V106.512H148.822V120.017C148.825 122.401 149.766 124.685 151.438 126.37C153.11 128.056 155.378 129.004 157.742 129.007H159.816C162.181 129.004 164.448 128.056 166.12 126.37C167.793 124.685 168.733 122.401 168.736 120.017V106.512H165.009L165.008 120.017Z" fill="white"/>
<path d="M146.718 129.007V126.355C146.718 126.062 146.603 125.782 146.398 125.575C146.192 125.368 145.914 125.251 145.623 125.251H134.871V106.512H131.143V126.854C131.143 127.137 131.199 127.417 131.306 127.678C131.413 127.939 131.57 128.176 131.769 128.376C131.967 128.576 132.203 128.735 132.462 128.843C132.721 128.951 132.998 129.007 133.279 129.007H146.718Z" fill="white"/>
<path d="M108.862 129.007H112.588V121.508H121.219C122.871 121.508 124.455 120.847 125.623 119.67C126.791 118.493 127.447 116.897 127.447 115.233V112.788C127.447 111.124 126.791 109.527 125.623 108.35C124.455 107.173 122.871 106.512 121.219 106.512H110.913C110.643 106.512 110.377 106.566 110.128 106.67C109.879 106.773 109.653 106.926 109.463 107.117C109.272 107.309 109.121 107.537 109.018 107.788C108.915 108.039 108.862 108.307 108.862 108.579V129.007ZM123.72 115.233C123.719 115.901 123.455 116.542 122.987 117.014C122.518 117.486 121.882 117.752 121.219 117.753H112.588V110.268H121.219C121.882 110.269 122.518 110.535 122.987 111.007C123.455 111.48 123.719 112.12 123.72 112.788V115.233Z" fill="white"/>
<path d="M83.2751 106.512H61.8179V110.268H70.6997V129.007H74.4261V110.268H83.2751V106.512Z" fill="white"/>
<path d="M64.3314 129.007V126.238C64.3315 126.108 64.3062 125.98 64.257 125.86C64.2077 125.74 64.1355 125.63 64.0444 125.539C63.9532 125.447 63.845 125.374 63.7259 125.324C63.6069 125.274 63.4792 125.249 63.3503 125.249H51.5106V106.512H47.7815V126.946C47.7817 127.493 47.9972 128.017 48.3805 128.403C48.7639 128.789 49.2837 129.006 49.8258 129.007H64.3314Z" fill="white"/>
<path d="M24.2644 108.548V126.974C24.2644 127.514 24.4771 128.031 24.8557 128.413C25.2343 128.794 25.7478 129.009 26.2832 129.009H42.3375V126.307C42.3379 126.168 42.311 126.03 42.2584 125.902C42.2058 125.774 42.1286 125.657 42.0311 125.559C41.9337 125.461 41.8179 125.383 41.6905 125.33C41.5631 125.277 41.4266 125.25 41.2889 125.251H27.9907V119.641H38.6112V115.885H27.9907V110.275H42.3576V106.519H26.2832C25.7487 106.519 25.2361 106.733 24.8576 107.113C24.4792 107.493 24.2659 108.009 24.2644 108.548Z" fill="white"/>
<path d="M10.1459 106.512H2.06258C1.51555 106.512 0.990922 106.731 0.604114 107.121C0.217306 107.511 0 108.039 0 108.591V126.927C-5.35114e-08 127.478 0.217278 128.007 0.60406 128.397C0.990842 128.787 1.51546 129.006 2.06258 129.007H10.1459C12.7358 129.007 15.2196 127.97 17.051 126.124C18.8823 124.279 19.9112 121.776 19.9112 119.166V116.36C19.912 115.067 19.66 113.786 19.1697 112.592C18.6793 111.397 17.9601 110.311 17.0532 109.397C16.1464 108.482 15.0696 107.757 13.8844 107.262C12.6992 106.767 11.4288 106.512 10.1459 106.512ZM16.1912 119.162C16.1895 120.776 15.5526 122.324 14.4201 123.465C13.2876 124.606 11.7521 125.249 10.1504 125.25H3.72633V110.267H10.1459C11.7476 110.269 13.2831 110.911 14.4155 112.053C15.548 113.194 16.185 114.742 16.1867 116.356L16.1912 119.162Z" fill="white"/>
<path d="M93.1655 106.144L80.2434 129.007H84.5328L86.6484 125.264H99.6836L101.799 129.007H106.089L93.1655 106.144ZM88.7703 121.508L93.1655 113.732L97.5608 121.508H88.7703Z" fill="white"/>
<path d="M75.9978 136.518H110.333L108.21 132.762H78.1206L75.9978 136.518Z" fill="#FFCC00"/>
</svg>
